<svg width="186" height="40" viewBox="0 0 186 40" fill="none" xmlns="http://www.w3.org/2000/svg">
<path d="M22.8054 2.71933L35.2425 38.3907V38.8952H26.2616L24.1425 32.0334H10.6964L8.57726 38.8952H0V38.3907L12.4118 2.71933H22.8054ZM12.9163 24.8941H21.9225L17.5329 10.8425H17.3311L12.9163 24.8941Z" fill="#333333"/>
<path d="M39.3797 38.8952V2.71933H56.6856C59.9483 2.71933 62.5888 3.55183 64.607 5.21683C66.5747 6.93228 67.5586 9.23637 67.5586 12.1291C67.5586 15.3245 66.3813 17.7884 64.0267 19.5207V19.7225C67.2727 21.2529 68.8956 24.1625 68.8956 28.4511C68.8956 31.7138 67.8781 34.2618 65.8431 36.095C63.7745 37.9618 60.949 38.8952 57.3668 38.8952H39.3797ZM47.4524 16.67H55.4999C58.0563 16.67 59.3345 15.5348 59.3345 13.2643C59.3345 10.9939 58.0563 9.85864 55.4999 9.85864H47.4524V16.67ZM47.4524 31.7054H56.0297C59.0906 31.7054 60.6211 30.3684 60.6211 27.6943C60.6211 26.6011 60.2595 25.6677 59.5363 24.8941C58.7963 24.1036 57.6274 23.7084 56.0297 23.7084H47.4524V31.7054Z" fill="#333333"/>
<path d="M88.5729 39.3493C84.1497 39.3493 80.5001 38.0795 77.6242 35.54C74.7315 33.0173 73.2851 29.3677 73.2851 24.5914V2.71933H81.3831V24.4904C81.3831 29.5863 83.7797 32.1343 88.5729 32.1343C93.3997 32.1343 95.8131 29.5863 95.8131 24.4904V2.71933H103.961V24.5914C103.961 29.3677 102.532 33.0173 99.6728 35.54C96.7465 38.0795 93.0465 39.3493 88.5729 39.3493Z" fill="#333333"/>
<path d="M120.334 39.3493C116.281 39.3493 113.304 38.4747 111.404 36.7257C109.419 34.9934 108.401 32.6725 108.351 29.7629H116.323C116.323 30.5702 116.668 31.2682 117.357 31.8568C118.047 32.4454 119.039 32.7397 120.334 32.7397C121.612 32.7397 122.579 32.5548 123.235 32.1848C123.857 31.8316 124.168 31.3607 124.168 30.772C124.168 29.7125 123.252 29.0061 121.419 28.6529L117.458 27.8961C111.942 26.8702 109.184 24.0448 109.184 19.4198C109.184 17.082 110.167 15.1732 112.135 13.6932C114.153 12.1627 116.869 11.3975 120.284 11.3975C123.681 11.3975 126.422 12.2636 128.508 13.9959C130.543 15.7282 131.56 17.8809 131.56 20.4541H123.689C123.74 19.7309 123.471 19.075 122.882 18.4864C122.327 17.9314 121.41 17.6539 120.132 17.6539C119.19 17.6539 118.434 17.8305 117.862 18.1836C117.273 18.5368 116.979 18.9825 116.979 19.5207C116.979 20.5129 117.651 21.1352 118.997 21.3875L124.168 22.3714C126.573 22.8254 128.516 23.6664 129.996 24.8941C131.442 26.1891 132.166 28.1316 132.166 30.7216C132.166 33.4798 131.081 35.5988 128.911 37.0788C126.708 38.5925 123.849 39.3493 120.334 39.3493Z" fill="#333333"/>
<path d="M148.134 39.3493C144.014 39.3493 140.76 38.0291 138.371 35.3886C135.95 32.765 134.739 29.435 134.739 25.3986C134.739 21.3286 135.891 17.9902 138.195 15.3834C140.549 12.7261 143.804 11.3975 147.958 11.3975C151.927 11.3975 155.08 12.642 157.418 15.1311C159.722 17.637 160.874 20.7904 160.874 24.5914V27.5177H142.862C142.912 29.1995 143.358 30.5113 144.199 31.4532C145.057 32.4118 146.368 32.8911 148.134 32.8911C150.59 32.8911 152.154 31.9998 152.827 30.217H160.521C160.168 32.7734 158.898 34.9429 156.712 36.7257C154.508 38.4747 151.649 39.3493 148.134 39.3493ZM142.912 22.5227H152.776C152.726 21.1941 152.297 20.0757 151.49 19.1675C150.666 18.3434 149.488 17.9314 147.958 17.9314C146.343 17.9314 145.124 18.3434 144.3 19.1675C143.425 20.042 142.963 21.1604 142.912 22.5227Z" fill="#333333"/>
<path d="M164.734 38.8952V0.650696H172.706V38.8952H164.734Z" fill="#333333"/>
<path d="M177.348 38.8952V0.650696H185.319V38.8952H177.348Z" fill="#333333"/>
</svg>
