<svg width="16" height="16" viewBox="0 0 16 16" fill="none" xmlns="http://www.w3.org/2000/svg">
<g id="cart" clip-path="url(#clip0_5765_14620)">
<path id="Vector" d="M10.3675 8.66732C10.8675 8.66732 11.3075 8.39398 11.5341 7.98065L13.9208 3.65398C14.1675 3.21398 13.8475 2.66732 13.3408 2.66732H3.47415L2.84748 1.33398H0.66748V2.66732H2.00081L4.40081 7.72732L3.50081 9.35398C3.01415 10.2473 3.65415 11.334 4.66748 11.334H12.6675V10.0007H4.66748L5.40081 8.66732H10.3675ZM4.10748 4.00065H12.2075L10.3675 7.33398H5.68748L4.10748 4.00065ZM4.66748 12.0007C3.93415 12.0007 3.34081 12.6007 3.34081 13.334C3.34081 14.0673 3.93415 14.6673 4.66748 14.6673C5.40081 14.6673 6.00081 14.0673 6.00081 13.334C6.00081 12.6007 5.40081 12.0007 4.66748 12.0007ZM11.3341 12.0007C10.6008 12.0007 10.0075 12.6007 10.0075 13.334C10.0075 14.0673 10.6008 14.6673 11.3341 14.6673C12.0675 14.6673 12.6675 14.0673 12.6675 13.334C12.6675 12.6007 12.0675 12.0007 11.3341 12.0007Z" fill="#1071FF"/>
</g>
<defs>
<clipPath id="clip0_5765_14620">
<rect width="16" height="16" fill="white" transform="translate(0.000732422)"/>
</clipPath>
</defs>
</svg>
