<svg width="89" height="88" viewBox="0 0 89 88" fill="none" xmlns="http://www.w3.org/2000/svg">
<path d="M19.6402 6.59961C16.3952 6.59961 13.8652 7.88863 12.2977 9.73461C10.7302 11.5806 10.0977 13.8733 10.0977 15.9496C10.0977 18.9609 11.4658 21.3774 13.2052 23.0996C13.3289 23.2234 13.463 23.3402 13.5902 23.4571H8.5027C7.48524 23.4605 6.66368 24.2821 6.66016 25.2997V43.9997C6.66359 45.0137 7.48516 45.8387 8.5027 45.8422H10.0977V79.5568C10.1011 80.5708 10.9227 81.3958 11.9402 81.3993H77.0602C77.5518 81.4027 78.0296 81.2137 78.3802 80.8665C78.7308 80.5193 78.9302 80.0484 78.9302 79.5568V45.8422H80.4977C81.5152 45.8388 82.3367 45.0138 82.3402 43.9997V25.2997C82.3437 24.3544 81.6321 23.5568 80.6902 23.4571C80.6249 23.4537 80.5631 23.4537 80.4977 23.4571H75.4103C75.5375 23.3403 75.6715 23.2234 75.7953 23.0996C77.5347 21.3775 78.9303 18.9609 78.9303 15.9496C78.9303 13.8734 78.2703 11.5806 76.7028 9.73464C75.1354 7.88866 72.6054 6.59964 69.3603 6.59964C64.3828 6.59964 58.8654 9.59709 53.933 13.1996C50.1002 15.9978 46.7177 19.1602 44.5003 22.0269C42.2831 19.1601 38.9006 15.9975 35.0676 13.1996C30.1347 9.59709 24.6176 6.59964 19.6403 6.59964L19.6402 6.59961ZM19.6402 10.3122C22.9849 10.3122 28.289 12.8319 32.8948 16.1972C36.0608 18.5072 38.9345 21.2056 40.8698 23.4572H20.1625C18.5915 22.5875 16.9828 21.6146 15.8175 20.4597C14.556 19.2119 13.7825 17.8953 13.7825 15.9497C13.7825 14.6537 14.2088 13.1791 15.1025 12.1272C15.9928 11.0753 17.3025 10.3122 19.64 10.3122H19.6402ZM69.3602 10.3122C71.6977 10.3122 73.004 11.0753 73.8977 12.1272C74.7914 13.179 75.2177 14.6537 75.2177 15.9497C75.2177 17.8953 74.4718 19.2119 73.2102 20.4597C72.0449 21.6147 70.4362 22.5875 68.8652 23.4572H48.1307C50.066 21.2056 52.9432 18.5072 56.1057 16.1972C60.712 12.8319 66.0162 10.3122 69.3602 10.3122ZM10.373 27.1422H19.4757C19.5926 27.1525 19.7129 27.1525 19.8332 27.1422H42.6586V42.1567H10.3732L10.373 27.1422ZM46.343 27.1422H68.8375C69.1366 27.2178 69.446 27.2178 69.745 27.1422H78.655V42.1567H46.3423L46.343 27.1422ZM13.783 45.8422H42.6575V77.7149H13.783V45.8422ZM46.343 45.8422H75.2175V77.7149H46.343V45.8422Z" fill="white"/>
</svg>
