<svg width="25" height="24" viewBox="0 0 25 24" fill="none" xmlns="http://www.w3.org/2000/svg">
<g clip-path="url(#clip0_3509_5180)">
<path d="M15.6597 14H14.8697L14.5897 13.73C15.5697 12.59 16.1597 11.11 16.1597 9.5C16.1597 5.91 13.2497 3 9.65967 3C6.06967 3 3.15967 5.91 3.15967 9.5C3.15967 13.09 6.06967 16 9.65967 16C11.2697 16 12.7497 15.41 13.8897 14.43L14.1597 14.71V15.5L19.1597 20.49L20.6497 19L15.6597 14ZM9.65967 14C7.16967 14 5.15967 11.99 5.15967 9.5C5.15967 7.01 7.16967 5 9.65967 5C12.1497 5 14.1597 7.01 14.1597 9.5C14.1597 11.99 12.1497 14 9.65967 14Z" fill="#1071FF"/>
</g>
<defs>
<clipPath id="clip0_3509_5180">
<rect width="24" height="24" fill="white" transform="translate(0.159668)"/>
</clipPath>
</defs>
</svg>
