<svg width="32" height="32" viewBox="0 0 32 32" fill="none" xmlns="http://www.w3.org/2000/svg">
<circle cx="16" cy="16" r="16" fill="white"/>
<path d="M16.75 19.25C16.75 19.3983 16.706 19.5433 16.6236 19.6667C16.5412 19.79 16.4241 19.8861 16.287 19.9429C16.15 19.9997 15.9992 20.0145 15.8537 19.9856C15.7082 19.9566 15.5746 19.8852 15.4697 19.7803C15.3648 19.6754 15.2934 19.5418 15.2644 19.3963C15.2355 19.2508 15.2503 19.1 15.3071 18.963C15.3639 18.8259 15.46 18.7088 15.5833 18.6264C15.7067 18.544 15.8517 18.5 16 18.5C16.1989 18.5 16.3897 18.579 16.5303 18.7197C16.671 18.8603 16.75 19.0511 16.75 19.25ZM16 12.5C14.6213 12.5 13.5 13.5094 13.5 14.75V15C13.5 15.1326 13.5527 15.2598 13.6464 15.3536C13.7402 15.4473 13.8674 15.5 14 15.5C14.1326 15.5 14.2598 15.4473 14.3536 15.3536C14.4473 15.2598 14.5 15.1326 14.5 15V14.75C14.5 14.0625 15.1731 13.5 16 13.5C16.8269 13.5 17.5 14.0625 17.5 14.75C17.5 15.4375 16.8269 16 16 16C15.8674 16 15.7402 16.0527 15.6464 16.1464C15.5527 16.2402 15.5 16.3674 15.5 16.5V17C15.5 17.1326 15.5527 17.2598 15.6464 17.3536C15.7402 17.4473 15.8674 17.5 16 17.5C16.1326 17.5 16.2598 17.4473 16.3536 17.3536C16.4473 17.2598 16.5 17.1326 16.5 17V16.955C17.64 16.7456 18.5 15.8362 18.5 14.75C18.5 13.5094 17.3788 12.5 16 12.5ZM22.5 16C22.5 17.2856 22.1188 18.5423 21.4046 19.6112C20.6903 20.6801 19.6752 21.5132 18.4874 22.0052C17.2997 22.4972 15.9928 22.6259 14.7319 22.3751C13.471 22.1243 12.3129 21.5052 11.4038 20.5962C10.4948 19.6872 9.8757 18.529 9.6249 17.2681C9.37409 16.0072 9.50282 14.7003 9.99479 13.5126C10.4868 12.3248 11.3199 11.3097 12.3888 10.5954C13.4577 9.88122 14.7144 9.5 16 9.5C17.7234 9.50182 19.3756 10.1872 20.5942 11.4058C21.8128 12.6244 22.4982 14.2767 22.5 16ZM21.5 16C21.5 14.9122 21.1774 13.8488 20.5731 12.9444C19.9687 12.0399 19.1098 11.3349 18.1048 10.9187C17.0998 10.5024 15.9939 10.3935 14.927 10.6057C13.8601 10.8179 12.8801 11.3417 12.1109 12.1109C11.3417 12.8801 10.8179 13.8601 10.6057 14.927C10.3935 15.9939 10.5024 17.0998 10.9187 18.1048C11.3349 19.1098 12.0399 19.9687 12.9444 20.5731C13.8488 21.1774 14.9122 21.5 16 21.5C17.4582 21.4983 18.8562 20.9184 19.8873 19.8873C20.9184 18.8562 21.4983 17.4582 21.5 16Z" fill="#081226" fill-opacity="0.4"/>
</svg>
